<svg width="40" height="40" viewBox="0 0 40 40" fill="none" xmlns="http://www.w3.org/2000/svg">
<g id="checkmark-circle">
<path id="Vector" d="M20 3.75C11.0398 3.75 3.75 11.0398 3.75 20C3.75 28.9602 11.0398 36.25 20 36.25C28.9602 36.25 36.25 28.9602 36.25 20C36.25 11.0398 28.9602 3.75 20 3.75ZM28.457 14.5539L17.957 27.0539C17.8419 27.1911 17.6985 27.3019 17.5368 27.3789C17.375 27.4559 17.1986 27.4972 17.0195 27.5H16.9984C16.8232 27.4999 16.65 27.463 16.49 27.3917C16.3299 27.3204 16.1867 27.2162 16.0695 27.0859L11.5695 22.0859C11.4552 21.9647 11.3663 21.8219 11.3081 21.6658C11.2498 21.5098 11.2232 21.3436 11.2301 21.1772C11.2369 21.0107 11.277 20.8473 11.3478 20.6965C11.4187 20.5458 11.519 20.4107 11.6429 20.2993C11.7667 20.1878 11.9116 20.1023 12.0689 20.0476C12.2263 19.993 12.393 19.9703 12.5593 19.981C12.7255 19.9917 12.888 20.0355 13.037 20.1099C13.1861 20.1843 13.3188 20.2877 13.4273 20.4141L16.9656 24.3453L26.543 12.9461C26.7578 12.6977 27.0617 12.5439 27.3891 12.5178C27.7165 12.4917 28.0409 12.5955 28.2924 12.8067C28.5438 13.0179 28.7021 13.3196 28.7329 13.6465C28.7637 13.9735 28.6646 14.2994 28.457 14.5539Z" fill="black"/>
</g>
</svg>
