<svg xmlns="http://www.w3.org/2000/svg" fill="none" viewBox="0 0 31 28"><path fill="#000" d="M30.7 11C30 7.8 28 5 25.3 3c-2.8-2-6.2-3.1-9.8-3.1C11.3-.1 7.3 1.4 4.4 4a12.6 12.6 0 0 0-2 17l.4.4L1 28l8-1.8.2.1 2.2.7c1 .2 2.8.5 4.2.5 4.2 0 8-1.4 10.9-4a13.1 13.1 0 0 0 4-12.6ZM8.9 16c-.5 0-1-.1-1.3-.3a2 2 0 0 1-.8-1c-.2-.3-.2-.7-.1-1 0-.5.3-.8.6-1.1.3-.3.7-.5 1.1-.6.5 0 .9 0 1.3.2.4.1.8.4 1 .7.2.3.4.7.4 1.1 0 .5-.3 1-.7 1.4-.4.4-1 .6-1.5.6Zm6.6 0c-.4 0-.9-.1-1.2-.3a2 2 0 0 1-.8-1c-.2-.3-.3-.7-.2-1 .1-.5.3-.8.6-1.1a2.4 2.4 0 0 1 2.4-.4c.5.1.8.4 1 .7.3.3.4.7.4 1.1 0 .5-.2 1-.6 1.4-.4.4-1 .6-1.6.6Zm6.6 0-1.2-.3a2 2 0 0 1-.8-1c-.2-.3-.2-.7-.1-1 0-.5.3-.8.6-1.1.3-.3.7-.5 1.1-.6.4 0 .9 0 1.3.2.4.1.7.4 1 .7.2.3.4.7.4 1.1 0 .5-.3 1-.7 1.4-.4.4-1 .6-1.6.6Z"/></svg>