<svg width="22" height="24" viewBox="0 0 22 24" fill="none" xmlns="http://www.w3.org/2000/svg">
<path id="Vector" d="M17.1346 6.85714V6.21429C17.1334 4.59317 16.5075 3.03657 15.3902 1.87589C14.273 0.715221 12.7526 0.0421573 11.1528 0H10.8472C9.24737 0.0421573 7.727 0.715221 6.60975 1.87589C5.49251 3.03657 4.86663 4.59317 4.86538 6.21429V6.85714H0.211538C0.155435 6.85714 0.101629 6.87972 0.0619582 6.91991C0.0222871 6.96009 0 7.0146 0 7.07143V23.1429C0 23.3702 0.0891481 23.5882 0.247833 23.7489C0.406517 23.9097 0.62174 24 0.846154 24H21.1538C21.3783 24 21.5935 23.9097 21.7522 23.7489C21.9109 23.5882 22 23.3702 22 23.1429V7.07143C22 7.0146 21.9777 6.96009 21.938 6.91991C21.8984 6.87972 21.8446 6.85714 21.7885 6.85714H17.1346ZM15.0192 6.85714H6.98077V6.26786C6.98077 4.02643 8.74764 2.16643 10.9603 2.14286C11.4913 2.13812 12.018 2.2399 12.51 2.44234C13.0019 2.64477 13.4495 2.94385 13.8268 3.32233C14.2041 3.70082 14.5037 4.15121 14.7084 4.64756C14.913 5.14391 15.0187 5.67638 15.0192 6.21429V6.85714Z" fill="black"/>
</svg>
