<svg width="26" height="23" viewBox="0 0 26 23" fill="none" xmlns="http://www.w3.org/2000/svg">
<path id="Vector" d="M22.75 0H3.25C2.38833 0.00103776 1.56221 0.386881 0.952921 1.07287C0.343628 1.75886 0.000921738 2.68896 0 3.65909V19.3409C0.000921738 20.311 0.343628 21.2411 0.952921 21.9271C1.56221 22.6131 2.38833 22.999 3.25 23H22.75C23.6117 22.999 24.4378 22.6131 25.0471 21.9271C25.6564 21.2411 25.9991 20.311 26 19.3409V3.65909C25.9991 2.68896 25.6564 1.75886 25.0471 1.07287C24.4378 0.386881 23.6117 0.00103776 22.75 0ZM21.9271 6.05253L13.5699 13.3707C13.4069 13.5133 13.2064 13.5908 13 13.5908C12.7936 13.5908 12.5931 13.5133 12.4301 13.3707L4.07295 6.05253C3.97476 5.96905 3.89228 5.86442 3.83032 5.74474C3.76835 5.62507 3.72813 5.49271 3.71199 5.35538C3.69585 5.21805 3.70412 5.07847 3.7363 4.94477C3.76849 4.81106 3.82395 4.68589 3.89948 4.57653C3.975 4.46717 4.06908 4.3758 4.17624 4.30772C4.2834 4.23965 4.40151 4.19623 4.5237 4.17999C4.64589 4.16376 4.76973 4.17502 4.88803 4.21314C5.00632 4.25125 5.1167 4.31546 5.21277 4.40202L13 11.221L20.7872 4.40202C20.982 4.23646 21.2267 4.16385 21.4686 4.19988C21.7105 4.23592 21.9301 4.37771 22.0799 4.59459C22.2297 4.81147 22.2976 5.08601 22.269 5.35884C22.2404 5.63167 22.1176 5.88087 21.9271 6.05253Z" fill="black"/>
</svg>
