<svg width="30" height="30" viewBox="0 0 30 30" fill="none" xmlns="http://www.w3.org/2000/svg">
<g id="document-text">
<path id="Vector" d="M25.0781 13.125H16.875C16.1291 13.125 15.4137 12.8287 14.8863 12.3012C14.3588 11.7738 14.0625 11.0584 14.0625 10.3125V2.10938C14.0625 2.04721 14.0378 1.9876 13.9939 1.94365C13.9499 1.89969 13.8903 1.875 13.8281 1.875H8.4375C7.44294 1.875 6.48911 2.27009 5.78585 2.97335C5.08259 3.67661 4.6875 4.63044 4.6875 5.625V24.375C4.6875 25.3696 5.08259 26.3234 5.78585 27.0266C6.48911 27.7299 7.44294 28.125 8.4375 28.125H21.5625C22.5571 28.125 23.5109 27.7299 24.2141 27.0266C24.9174 26.3234 25.3125 25.3696 25.3125 24.375V13.3594C25.3125 13.2972 25.2878 13.2376 25.2439 13.1936C25.1999 13.1497 25.1403 13.125 25.0781 13.125ZM19.6875 22.5H10.3125C10.0639 22.5 9.8254 22.4012 9.64959 22.2254C9.47377 22.0496 9.375 21.8111 9.375 21.5625C9.375 21.3139 9.47377 21.0754 9.64959 20.8996C9.8254 20.7238 10.0639 20.625 10.3125 20.625H19.6875C19.9361 20.625 20.1746 20.7238 20.3504 20.8996C20.5262 21.0754 20.625 21.3139 20.625 21.5625C20.625 21.8111 20.5262 22.0496 20.3504 22.2254C20.1746 22.4012 19.9361 22.5 19.6875 22.5ZM19.6875 17.8125H10.3125C10.0639 17.8125 9.8254 17.7137 9.64959 17.5379C9.47377 17.3621 9.375 17.1236 9.375 16.875C9.375 16.6264 9.47377 16.3879 9.64959 16.2121C9.8254 16.0363 10.0639 15.9375 10.3125 15.9375H19.6875C19.9361 15.9375 20.1746 16.0363 20.3504 16.2121C20.5262 16.3879 20.625 16.6264 20.625 16.875C20.625 17.1236 20.5262 17.3621 20.3504 17.5379C20.1746 17.7137 19.9361 17.8125 19.6875 17.8125Z" fill="black"/>
<path id="Vector_2" d="M24.5637 11.0502L16.1373 2.62383C16.1209 2.60754 16.1001 2.59645 16.0774 2.59197C16.0547 2.58749 16.0313 2.58981 16.0099 2.59864C15.9886 2.60747 15.9703 2.62241 15.9574 2.6416C15.9445 2.66078 15.9376 2.68334 15.9375 2.70644V10.3125C15.9375 10.5611 16.0363 10.7996 16.2121 10.9754C16.3879 11.1512 16.6264 11.25 16.875 11.25H24.4811C24.5042 11.2499 24.5267 11.243 24.5459 11.2301C24.5651 11.2172 24.58 11.1989 24.5889 11.1776C24.5977 11.1562 24.6 11.1328 24.5955 11.1101C24.591 11.0874 24.58 11.0666 24.5637 11.0502Z" fill="black"/>
</g>
</svg>
