<svg xmlns="http://www.w3.org/2000/svg" fill="none" viewBox="0 0 31 31"><path fill="#000" d="M24.5 30.2c-1.3 0-3.2-.5-6-2a39.4 39.4 0 0 1-9.2-7 35.1 35.1 0 0 1-7-9.2C0 7.5.4 5.2.9 4.2c.6-1.2 1.4-2 2.5-2.7a11.8 11.8 0 0 1 2-1c.4-.2.9-.5 1.5-.2.5.1.8.5 1.4 1 1.2 1.3 3 4 3.5 5.2.4 1 .7 1.5.7 2.2 0 .7-.4 1.3-.8 2l-.3.3c-.5.7-.6.9-.6 1.2.2.7 1.3 2.8 3.1 4.6 1.9 1.8 3.9 2.9 4.6 3 .3.1.5 0 1.2-.5l.3-.3c.7-.5 1.3-.9 2-.9s1.3.3 2.2.8c1.2.6 4 2.2 5.2 3.4.6.6.9 1 1 1.4.3.7 0 1.2 0 1.5l-.2.2-1 1.9a7 7 0 0 1-2.6 2.5c-.7.2-1.3.4-2 .4Z"/></svg>