<svg width="31" height="31" viewBox="0 0 31 31" fill="none" xmlns="http://www.w3.org/2000/svg">
<path id="Vector" d="M24.4838 30.1876C23.1764 30.1876 21.3399 29.7147 18.5898 28.1782C15.2456 26.3028 12.6589 24.5714 9.33274 21.254C6.12583 18.0491 4.56525 15.9742 2.3811 11.9997C-0.0863721 7.51216 0.33425 5.15989 0.804435 4.15455C1.36437 2.95296 2.19088 2.23429 3.25918 1.52098C3.86596 1.12342 4.5081 0.782622 5.17743 0.50291C5.24441 0.47411 5.30669 0.446649 5.36229 0.421867C5.69383 0.272506 6.19616 0.0467902 6.83245 0.287911C7.25709 0.447319 7.63619 0.773501 8.22961 1.35956C9.4466 2.5598 11.1097 5.23289 11.7232 6.54566C12.1351 7.43044 12.4077 8.01449 12.4084 8.66953C12.4084 9.43643 12.0226 10.0278 11.5544 10.6661C11.4667 10.786 11.3796 10.9006 11.2952 11.0118C10.7855 11.6815 10.6736 11.8751 10.7473 12.2207C10.8967 12.9153 12.0105 14.9829 13.841 16.8094C15.6715 18.6359 17.6795 19.6794 18.3768 19.8281C18.7371 19.9051 18.9347 19.7885 19.6259 19.2608C19.725 19.1851 19.8268 19.1067 19.9333 19.0284C20.6473 18.4972 21.2113 18.1215 21.9601 18.1215H21.9641C22.6158 18.1215 23.1737 18.4041 24.098 18.8703C25.3036 19.4784 28.0571 21.1201 29.2647 22.3384C29.8521 22.9305 30.1796 23.3082 30.3397 23.7322C30.5808 24.3705 30.3538 24.8708 30.2058 25.2057C30.181 25.2613 30.1535 25.3223 30.1247 25.3899C29.8428 26.0581 29.5 26.6988 29.1006 27.3041C28.3886 28.3691 27.6673 29.1936 26.463 29.7542C25.8446 30.0467 25.1679 30.1949 24.4838 30.1876Z" fill="black"/>
</svg>
