<svg width="30" height="30" viewBox="0 0 30 30" fill="none" xmlns="http://www.w3.org/2000/svg">
<path id="Vector" d="M20.5268 2.18168C19.1234 0.774772 17.1634 0 15 0C12.8251 0 10.8585 0.770085 9.46169 2.16829C8.04971 3.5819 7.36175 5.50309 7.52328 7.57763C7.84347 11.6705 11.1975 14.9999 15 14.9999C18.8025 14.9999 22.1508 11.6711 22.476 7.57897C22.6397 5.52318 21.9474 3.60601 20.5268 2.18168ZM27.692 29.9998H2.30804C1.97579 30.0038 1.64675 29.939 1.34487 29.8101C1.04299 29.6812 0.77585 29.4914 0.562897 29.2545C0.0941599 28.7342 -0.0947773 28.0237 0.0451227 27.3052C0.65376 24.1699 2.55323 21.5363 5.53872 19.6874C8.19105 18.0461 11.5508 17.1428 15 17.1428C18.4492 17.1428 21.8089 18.0468 24.4613 19.6874C27.4468 21.5356 29.3462 24.1693 29.9549 27.3045C30.0948 28.0231 29.9058 28.7335 29.4371 29.2538C29.2242 29.4908 28.9571 29.6807 28.6552 29.8098C28.3533 29.9388 28.0243 30.0038 27.692 29.9998Z" fill="black"/>
</svg>
