<svg xmlns="http://www.w3.org/2000/svg" xml:space="preserve" viewBox="0 0 512 512"><path fill="#fdce6e" d="m265 405 58 101 34-8 9-70-101-23z"/><path fill="#fdfa7b" d="m146 428 9 70c54 15 112 18 168 8l11-92-188 14z"/><path fill="#fda162" d="m122 228 9 73 200 136 35-9 24-200H122z"/><g fill="#fdce6e"><path d="m331 437 18-148-11-6a170 170 0 0 1-164 0c-13 8-28 14-43 18l15 127c60 18 124 22 185 9zM411 68v202a101 101 0 1 0 0-202z"/></g><path fill="#fdfa7b" d="M478 169c0-56-30-101-67-101-12 0-24 2-35 6a135 135 0 0 0-240 0 101 101 0 1 0 36 167 134 134 0 0 0 168 0c18 18 43 29 71 29 37 0 67-45 67-101z"/><g fill="#fdce6e"><circle cx="92.8" cy="151.9" r="8.4"/><circle cx="59.1" cy="185.7" r="8.4"/></g></svg>